<?xml version="1.0" standalone="no"?>
<!DOCTYPE svg PUBLIC "-//W3C//DTD SVG 20010904//EN"
 "http://www.w3.org/TR/2001/REC-SVG-20010904/DTD/svg10.dtd">
<svg version="1.0" xmlns="http://www.w3.org/2000/svg"
 width="2222.000000pt" height="2221.000000pt" viewBox="0 0 2222.000000 2221.000000"
 preserveAspectRatio="xMidYMid meet">

<g transform="translate(0.000000,2221.000000) scale(0.100000,-0.100000)"
fill="#000000" stroke="none">
<path d="M10665 20639 c-1159 -54 -2290 -315 -3370 -777 -242 -103 -726 -345
-960 -479 -1081 -622 -1999 -1409 -2773 -2376 -1176 -1471 -1894 -3254 -2066
-5132 -52 -562 -52 -1205 0 -1775 223 -2459 1381 -4733 3249 -6376 1513 -1331
3418 -2159 5415 -2354 411 -40 531 -44 1118 -42 522 1 584 3 685 21 62 11 177
27 257 36 2650 296 5089 1712 6685 3880 1020 1386 1650 3016 1824 4725 40 388
46 517 45 1005 0 591 -22 898 -100 1430 -352 2383 -1610 4567 -3514 6101
-1822 1467 -4146 2223 -6495 2113z m568 -416 c-40 -2 -107 -2 -150 0 -43 1
-10 3 72 3 83 0 118 -2 78 -3z m350 -10 c-7 -2 -21 -2 -30 0 -10 3 -4 5 12 5
17 0 24 -2 18 -5z m170 -10 c-7 -2 -19 -2 -25 0 -7 3 -2 5 12 5 14 0 19 -2 13
-5z m134 -9 c-3 -3 -12 -4 -19 -1 -8 3 -5 6 6 6 11 1 17 -2 13 -5z m-912 -478
c12 -12 11 -15 -7 -20 -24 -6 -51 11 -42 25 8 13 34 11 49 -5z m2662 -491 c-5
-28 -2 -38 16 -50 12 -8 17 -15 12 -16 -6 0 13 -7 40 -14 l50 -12 -58 3 -59 3
16 -24 c21 -32 20 -42 -1 -16 -23 27 -37 17 -51 -39 l-11 -45 5 43 c4 30 1 50
-10 67 -9 14 -13 25 -9 26 5 1 -10 7 -32 15 l-40 14 37 -4 c46 -6 55 6 33 42
l-16 27 19 -22 c11 -12 23 -19 27 -15 5 4 5 1 1 -5 -4 -7 -3 -13 3 -13 6 0 13
16 17 35 8 46 18 46 11 0z m44 -31 c-17 -13 -25 -14 -34 -5 -9 9 -8 11 4 6 10
-4 20 -2 24 4 3 6 11 11 18 11 6 0 1 -7 -12 -16z m-102 -67 c-2 -1 -13 -9 -24
-17 -19 -14 -19 -14 -6 3 7 9 18 17 24 17 6 0 8 -1 6 -3z m-7703 -892 c-3 -23
-14 -29 -31 -15 -18 15 -11 30 15 30 10 0 17 -6 16 -15z m2169 -261 c9 3 12 0
8 -10 -3 -9 1 -14 13 -14 15 0 14 -3 -6 -13 -15 -7 -28 -25 -31 -42 l-7 -30
-1 29 c-1 20 -5 27 -15 23 -10 -4 -13 -1 -9 9 3 9 -2 14 -18 15 -21 1 -21 2
-4 6 30 8 45 23 46 47 2 19 2 19 6 -2 3 -15 10 -22 18 -18z m3918 -36 c-2 -5
1 -8 7 -8 7 0 6 -5 -2 -14 -7 -8 -16 -12 -20 -9 -5 2 -9 -4 -9 -14 -1 -17 -2
-17 -6 0 -2 9 -9 17 -14 17 -6 0 -7 5 -4 10 3 6 -2 11 -12 11 -17 1 -17 2 0 6
9 2 17 9 17 14 0 6 5 7 10 4 6 -3 10 -1 10 5 0 7 5 6 14 -2 8 -7 12 -16 9 -20z
m5432 -168 c10 -11 16 -20 13 -20 -3 0 -13 9 -23 20 -10 11 -16 20 -13 20 3 0
13 -9 23 -20z m-7139 -169 c3 -11 7 -11 22 0 14 11 15 11 5 -1 -21 -23 -15
-30 25 -32 l37 -1 -38 -4 c-32 -4 -38 -8 -34 -23 3 -13 0 -17 -9 -13 -10 4
-14 -4 -15 -23 -2 -28 -2 -28 -6 -4 -7 38 -32 60 -72 62 l-36 1 35 4 c19 3 39
11 43 19 5 8 12 12 18 9 5 -4 10 9 10 27 1 20 3 25 6 13 2 -11 6 -26 9 -34z
m7404 -86 c52 -52 92 -95 90 -95 -3 0 -48 43 -100 95 -52 52 -92 95 -90 95 3
0 48 -43 100 -95z m-7446 26 c3 -5 -2 -15 -12 -22 -15 -12 -16 -12 -5 2 7 9
10 19 6 22 -3 4 -4 7 0 7 3 0 8 -4 11 -9z m5696 -31 c0 -13 -7 -20 -20 -20
-13 0 -20 7 -20 20 0 13 7 20 20 20 13 0 20 -7 20 -20z m2001 -257 c13 -16 12
-17 -3 -4 -17 13 -22 21 -14 21 2 0 10 -8 17 -17z m100 -110 c13 -16 12 -17
-3 -4 -17 13 -22 21 -14 21 2 0 10 -8 17 -17z m-12358 -116 c22 18 22 18 5 -3
-25 -29 -23 -34 20 -35 36 -1 36 -2 7 -8 -16 -4 -29 -12 -28 -18 2 -7 -6 -10
-17 -8 -14 3 -20 -2 -20 -13 0 -14 -2 -15 -9 -2 -6 8 -7 19 -4 25 4 5 -4 1
-18 -10 -13 -11 -18 -13 -11 -5 20 23 14 30 -30 32 -40 1 -41 1 -8 5 56 6 64
11 50 28 -11 13 -10 14 4 9 10 -4 16 -1 16 7 0 9 4 7 11 -4 10 -18 12 -18 32
0z m9439 -537 c8 -24 -13 -39 -32 -21 -11 12 -13 21 -6 37 11 22 27 15 38 -16z
m-9637 -780 c143 -30 262 -72 403 -140 l122 -60 0 -276 c0 -217 -3 -275 -12
-271 -7 2 -64 39 -126 81 -202 137 -360 204 -545 232 -263 41 -506 -39 -590
-194 -67 -123 -37 -238 81 -316 82 -54 186 -89 453 -155 263 -64 384 -103 494
-159 299 -150 436 -390 395 -692 -25 -185 -98 -336 -225 -465 -212 -216 -498
-327 -850 -327 -295 -1 -535 65 -807 220 l-118 67 0 283 c0 155 3 282 7 282 3
0 40 -26 82 -59 188 -145 403 -260 571 -306 129 -35 298 -44 402 -21 226 50
388 206 388 374 0 89 -16 136 -68 193 -80 89 -209 140 -582 229 -494 118 -722
295 -786 611 -28 140 -5 309 61 439 38 74 112 166 183 226 126 105 348 195
552 224 112 15 401 4 515 -20z m6725 -3 c519 -122 896 -536 991 -1085 24 -146
26 -388 3 -523 -74 -432 -331 -793 -703 -987 -193 -102 -375 -145 -606 -145
-220 0 -394 41 -579 136 -375 191 -618 539 -698 997 -16 97 -16 392 1 494 37
224 139 470 265 637 195 259 477 434 794 494 122 23 397 14 532 -18z m5265 3
c143 -31 266 -74 396 -138 l114 -57 3 -282 2 -282 -91 64 c-265 188 -485 269
-724 269 -171 0 -295 -41 -393 -129 -67 -60 -95 -127 -90 -211 10 -158 117
-220 573 -334 405 -101 570 -174 709 -314 152 -153 208 -358 162 -598 -67
-346 -365 -616 -778 -703 -375 -80 -763 -6 -1140 217 l-68 40 0 284 c0 156 2
284 4 284 2 0 53 -36 112 -81 198 -147 379 -241 564 -290 69 -19 111 -23 225
-23 126 0 148 2 220 27 134 45 241 131 293 237 36 74 38 183 4 247 -65 124
-203 192 -551 273 -306 71 -484 140 -619 242 -87 66 -143 132 -187 223 -49 99
-65 172 -65 295 0 127 16 196 71 309 47 95 147 209 243 274 126 85 310 152
486 177 114 16 412 4 525 -20z m-10435 -1355 l0 -1345 -260 0 -260 0 0 1338
c0 736 3 1342 7 1345 3 4 120 7 260 7 l253 0 0 -1345z m1100 1313 c11 -18 185
-313 387 -655 202 -342 370 -620 373 -618 3 2 179 296 390 654 l385 650 283 1
282 0 0 -1345 0 -1345 -255 0 -255 0 -2 946 -3 947 -414 -707 -414 -707 -61
104 c-33 58 -218 372 -411 700 l-350 595 -3 -939 -2 -939 -260 0 -260 0 0
1345 0 1345 285 0 285 0 20 -32z m6537 -880 l578 -912 3 912 2 912 260 0 260
0 0 -1345 0 -1345 -259 0 -259 0 -578 922 -579 922 -3 -922 -2 -922 -260 0
-260 0 0 1345 0 1345 259 0 259 0 579 -912z m-11242 -214 c9 3 12 0 8 -10 -3
-9 2 -14 13 -15 14 -1 12 -3 -6 -8 -17 -5 -27 -16 -31 -36 -6 -25 -7 -26 -8
-6 -1 16 -6 21 -15 18 -10 -4 -13 -1 -9 9 3 9 -1 14 -13 15 -14 0 -15 2 -4 6
21 9 40 29 41 45 1 7 3 5 6 -5 3 -11 11 -16 18 -13z m15638 -1571 c-3 -8 4
-14 18 -14 l24 -2 -23 -4 c-12 -2 -20 -8 -18 -12 3 -4 -8 -7 -24 -7 -16 0 -27
3 -24 8 3 4 -5 9 -18 9 l-23 2 23 4 c13 3 22 10 19 16 -3 7 6 12 23 12 18 0
26 -4 23 -12z m-16344 -606 c6 -6 38 -17 69 -23 l57 -11 -52 -2 c-66 -1 -89
-22 -98 -88 -10 -78 -13 -81 -14 -18 -1 83 -17 103 -84 107 l-52 3 40 8 c79
15 90 26 94 92 l3 60 12 -58 c7 -31 18 -63 25 -70z m-89 38 c19 -19 32 -35 29
-35 -3 0 -20 16 -39 35 -19 19 -32 35 -29 35 3 0 20 -16 39 -35z m160 32 c0
-2 -17 -19 -37 -38 l-38 -34 34 38 c33 34 41 42 41 34z m-130 -130 c0 -2 -17
-19 -37 -38 l-38 -34 34 38 c33 34 41 42 41 34z m100 -32 c19 -19 32 -35 29
-35 -3 0 -20 16 -39 35 -19 19 -32 35 -29 35 3 0 20 -16 39 -35z m2264 -85
c108 -27 190 -74 266 -151 73 -73 130 -174 157 -279 22 -87 21 -245 -1 -329
-60 -223 -232 -389 -451 -436 -88 -18 -142 -19 -230 0 -169 36 -309 144 -384
298 -54 109 -71 181 -71 298 0 188 54 324 181 451 146 149 331 200 533 148z
m2651 -5 c33 -9 88 -30 123 -46 l62 -30 0 -125 c0 -69 -3 -123 -7 -120 -5 2
-39 25 -77 50 -93 61 -181 90 -276 90 -144 1 -234 -74 -208 -171 12 -48 70
-76 246 -122 182 -48 251 -79 313 -141 134 -134 93 -372 -86 -495 -87 -60
-183 -88 -305 -89 -129 -1 -218 20 -333 78 l-82 42 -3 127 c-1 70 0 127 2 127
3 0 45 -27 95 -61 117 -79 200 -109 307 -109 67 0 89 4 132 26 68 34 102 82
102 145 0 87 -45 117 -260 174 -163 43 -224 70 -283 125 -63 58 -90 118 -90
205 -1 160 117 287 306 331 77 17 237 12 322 -11z m7196 11 c166 -36 313 -153
387 -308 52 -109 66 -172 66 -293 -1 -178 -52 -311 -168 -433 -223 -235 -588
-241 -815 -13 -116 115 -171 260 -171 446 0 125 19 206 72 308 120 231 371
347 629 293z m-8335 -38 c68 -36 119 -95 138 -159 33 -111 11 -198 -73 -280
-36 -36 -71 -60 -92 -65 l-34 -7 55 -12 c151 -32 229 -124 230 -271 0 -39 -7
-91 -16 -117 -32 -94 -136 -179 -274 -223 -46 -15 -104 -18 -357 -22 l-303 -4
0 597 0 596 338 -3 337 -3 51 -27z m2544 -68 l0 -100 -285 0 -285 0 0 -140 0
-140 270 0 270 0 0 -90 0 -90 -270 0 -270 0 0 -165 0 -165 285 0 285 0 0 -100
0 -100 -400 0 -400 0 0 595 0 595 400 0 400 0 0 -100z m1077 73 c74 -29 124
-73 158 -135 25 -45 29 -64 30 -128 0 -103 -22 -156 -91 -219 -51 -47 -125
-84 -196 -98 -26 -5 -25 -7 30 -33 64 -31 110 -75 141 -135 11 -22 52 -123 90
-225 l69 -185 -121 -3 c-66 -1 -124 1 -128 5 -4 4 -28 76 -54 158 -57 182 -82
232 -135 278 -48 41 -103 57 -194 57 l-66 0 0 -250 0 -250 -115 0 -115 0 0
596 0 595 323 -3 c300 -3 326 -5 374 -25z m766 -186 c38 -116 103 -317 144
-446 l76 -235 63 195 c34 107 99 308 144 447 l81 252 131 0 c100 0 129 -3 126
-12 -3 -7 -101 -275 -219 -596 l-214 -583 -115 3 -115 3 -207 575 c-114 316
-210 583 -214 593 -5 16 5 17 123 17 l128 0 68 -213z m1733 -377 c118 -321
214 -588 214 -592 0 -5 -58 -8 -128 -8 l-128 0 -51 158 -52 157 -185 3 -184 2
-53 -160 -54 -160 -128 0 c-99 0 -128 3 -125 13 3 6 101 274 218 595 l214 583
114 -3 115 -3 213 -585z m1304 490 l0 -100 -175 0 -175 0 0 -495 0 -495 -115
0 -115 0 0 495 0 495 -165 0 -165 0 0 100 0 100 455 0 455 0 0 -100z m2410 73
c74 -30 120 -70 155 -134 25 -46 29 -65 30 -129 0 -49 -6 -91 -18 -122 -33
-84 -153 -173 -263 -194 l-38 -7 44 -17 c54 -21 114 -70 144 -118 23 -37 166
-407 166 -430 0 -10 -31 -12 -121 -10 l-122 3 -61 182 c-69 203 -93 244 -171
282 -36 19 -70 26 -132 29 l-83 5 0 -252 0 -251 -115 0 -115 0 0 596 0 595
323 -3 c305 -3 325 -5 377 -25z m825 -188 c99 -177 122 -212 131 -200 7 9 62
106 124 215 l112 200 144 0 144 0 -44 -67 c-23 -38 -118 -184 -209 -326 l-167
-259 0 -269 0 -269 -115 0 -115 0 0 273 0 274 -181 284 c-100 156 -192 301
-205 322 l-24 37 142 0 143 -1 120 -214z m-3304 -1420 c5 3 6 -1 3 -9 -4 -12
1 -16 17 -17 l24 -2 -23 -4 c-15 -3 -22 -10 -18 -18 3 -10 -2 -11 -22 -6 -15
5 -34 6 -42 4 -13 -4 -13 -3 0 6 13 10 13 12 0 21 -12 8 -12 10 -1 10 9 0 11
7 8 21 -4 17 -3 19 6 10 17 -17 27 -13 28 12 2 17 3 16 6 -6 2 -15 9 -25 14
-22z m-34 -87 c-3 -8 -6 -5 -6 6 -1 11 2 17 5 13 3 -3 4 -12 1 -19z m-1722
-252 c14 17 14 16 4 -11 l-10 -30 43 40 c24 23 31 27 15 9 -31 -35 -35 -49 -9
-40 14 5 14 4 -2 -9 -18 -14 -14 -15 50 -16 l69 -2 -55 -7 c-90 -11 -95 -16
-60 -56 41 -48 38 -55 -6 -13 -34 32 -36 33 -30 9 l7 -25 -15 25 c-15 24 -15
21 -18 -60 l-2 -85 -6 85 c-5 77 -7 83 -18 60 -12 -23 -12 -23 -8 -2 6 30 -2
28 -44 -10 -34 -32 -34 -32 3 8 45 49 41 54 -63 64 l-65 7 76 1 c42 1 79 5 83
9 3 4 -10 24 -31 45 -42 43 -34 53 9 11 50 -48 58 -42 60 55 l2 87 3 -84 c4
-76 5 -82 18 -65z m-74 -44 c-7 -2 -18 1 -23 6 -8 8 -4 9 13 5 13 -4 18 -8 10
-11z m-2075 -288 c8 3 12 2 9 -3 -3 -6 3 -14 12 -20 15 -9 15 -10 2 -11 -17 0
-36 -31 -42 -70 -4 -22 -4 -21 -6 6 -1 38 -10 47 -30 32 -13 -10 -14 -10 -3 2
18 21 15 30 -10 31 l-23 0 23 10 c13 5 21 13 17 19 -3 6 1 7 9 4 13 -5 16 2
18 32 l1 39 4 -38 c3 -29 8 -37 19 -33z m-2926 17 c0 12 2 12 9 0 5 -7 14 -11
20 -7 7 5 9 1 5 -8 -4 -10 -1 -16 7 -16 8 -1 3 -7 -11 -15 -14 -7 -28 -24 -31
-37 -7 -22 -7 -21 -8 5 -1 16 -5 26 -11 22 -6 -3 -7 1 -4 9 4 12 -1 16 -17 17
l-24 2 23 4 c16 3 22 9 18 20 -5 13 -4 14 9 3 12 -10 15 -10 15 1z m12686 -90
c3 -11 9 -10 27 5 22 19 22 19 5 -2 -26 -30 -23 -34 25 -36 40 -1 40 -1 7 -5
-43 -5 -68 -26 -73 -62 -4 -23 -4 -22 -6 7 -1 34 -9 39 -31 20 -12 -11 -12
-10 -2 3 15 20 6 29 -32 30 -27 2 -28 2 -6 6 51 8 54 12 34 36 -19 22 -19 22
2 5 30 -26 34 -23 35 25 2 32 3 35 6 12 2 -16 6 -36 9 -44z m-8845 -571 c6 0
7 -4 4 -10 -3 -5 -1 -10 5 -10 7 0 6 -5 -2 -14 -7 -8 -16 -12 -20 -9 -5 2 -8
-1 -8 -7 0 -7 -5 -6 -14 2 -8 7 -12 16 -9 21 2 4 -4 8 -14 8 -17 1 -17 2 0 6
9 2 17 9 17 14 0 6 5 7 10 4 6 -3 11 2 11 12 1 17 2 17 6 1 2 -10 9 -18 14
-18z m7185 -124 c-5 -28 -3 -37 14 -49 11 -7 17 -17 13 -20 -3 -4 4 -7 17 -7
31 0 21 -9 -13 -12 -30 -3 -33 -8 -14 -28 10 -12 9 -12 -3 -3 -19 14 -36 5
-43 -22 -4 -16 -5 -15 -6 6 -1 34 -9 40 -35 28 -19 -9 -19 -9 -4 4 10 8 14 18
10 23 -4 5 4 0 17 -11 l24 -20 -13 21 c-8 12 -31 26 -54 32 l-41 10 40 -1 c33
-2 40 1 38 17 -1 13 2 15 10 7 18 -18 26 -13 33 24 3 19 8 35 11 35 3 0 2 -15
-1 -34z m41 -33 c-14 -14 -19 -15 -29 -4 -11 10 -10 11 3 6 10 -4 20 -2 24 4
3 6 9 11 13 11 3 0 -1 -8 -11 -17z m-15041 -347 c-3 -13 -9 -32 -13 -42 -5
-14 -2 -16 23 -10 27 6 27 5 8 -6 -25 -15 -16 -28 31 -46 17 -6 25 -11 18 -11
-6 -1 -24 4 -40 10 -23 9 -30 7 -44 -10 -9 -11 -19 -18 -22 -15 -2 3 -8 -7
-11 -22 -4 -14 -9 -24 -11 -22 -3 2 0 19 5 37 8 30 8 31 -7 19 -12 -9 -15 -9
-9 0 9 15 1 15 -25 2 -10 -6 -19 -8 -19 -6 0 3 12 12 28 20 15 8 21 15 14 16
-7 0 -11 4 -8 9 3 4 -13 14 -35 20 -23 7 -39 14 -37 17 3 2 24 -3 48 -11 51
-18 51 -18 48 -3 -2 7 4 12 12 13 8 0 22 15 30 32 18 39 24 42 16 9z m794 -11
c0 -8 -6 -15 -14 -15 -17 0 -28 14 -19 24 12 12 33 6 33 -9z m-794 -115 c0
-12 -4 -16 -9 -11 -5 5 -6 14 -3 20 10 15 12 14 12 -9z m9385 -320 c-21 -22
-37 1 -19 29 11 17 13 18 23 4 9 -13 8 -20 -4 -33z m2183 -42 c-3 -4 -11 -5
-19 -1 -16 5 -20 25 -8 36 7 8 33 -25 27 -35z m-2892 -539 c-16 -15 -18 -15
-29 5 -9 17 -9 22 3 24 8 2 14 8 14 15 0 6 6 2 14 -9 13 -16 12 -21 -2 -35z
m-7101 -164 l-30 -97 26 23 26 24 -18 -28 -18 -28 56 25 c74 32 73 25 0 -13
l-58 -30 35 -2 35 -1 -30 -7 c-26 -5 -19 -10 68 -40 101 -35 129 -52 42 -25
-130 39 -145 42 -140 34 4 -6 1 -10 -5 -10 -7 0 -8 -6 0 -19 18 -34 30 -72 22
-67 -5 3 -17 24 -28 47 -17 40 -19 41 -25 18 l-7 -24 -2 25 c-1 16 -13 -6 -35
-65 -40 -107 -45 -102 -10 10 30 95 29 91 8 74 -11 -10 -14 -10 -9 -1 10 17 2
15 -44 -8 -59 -30 -62 -24 -5 10 44 26 47 30 25 31 -23 1 -22 2 5 8 28 6 23 9
-52 36 -46 15 -81 30 -79 32 2 2 36 -6 76 -18 88 -26 101 -19 70 41 -30 58
-19 61 13 2 26 -46 27 -46 28 -17 l1 30 7 -30 c6 -27 10 -21 41 67 19 53 36
95 38 93 2 -2 -10 -47 -27 -100z m-100 -82 c13 -16 12 -17 -3 -4 -10 7 -18 15
-18 17 0 8 8 3 21 -13z m120 -110 c13 -16 12 -17 -3 -4 -10 7 -18 15 -18 17 0
8 8 3 21 -13z m10946 -655 c9 -10 26 -19 37 -19 15 -1 12 -3 -9 -8 -16 -4 -29
-12 -27 -19 1 -7 -2 -12 -8 -12 -5 0 -11 -17 -12 -37 l-1 -38 -4 35 c-6 45
-29 70 -67 71 l-31 1 35 7 c51 10 60 18 61 54 2 27 2 28 6 7 3 -14 12 -33 20
-42z m-47 -52 c0 -2 -8 -10 -17 -17 -16 -13 -17 -12 -4 4 13 16 21 21 21 13z
m2480 -376 c8 13 10 13 10 1 0 -10 14 -2 37 20 36 32 37 32 9 2 -17 -19 -25
-36 -21 -44 5 -8 4 -10 -3 -5 -7 4 -12 2 -12 -3 0 -7 32 -12 83 -13 l82 -2
-85 -6 c-47 -3 -78 -7 -70 -8 12 -2 11 -5 -3 -13 -12 -7 -16 -17 -12 -32 5
-19 4 -19 -9 3 -15 24 -15 21 -18 -55 l-2 -80 -3 70 c-2 39 -8 74 -12 78 -5 5
-28 -8 -52 -29 l-44 -38 40 42 c22 24 39 46 38 50 -2 4 -38 10 -80 13 l-78 5
78 2 c88 2 93 9 45 62 l-33 35 41 -38 c22 -20 43 -34 47 -31 4 4 8 39 9 78 l2
71 3 -75 c3 -51 7 -70 13 -60z m60 -115 c19 -19 32 -35 29 -35 -3 0 -20 16
-39 35 -19 19 -32 35 -29 35 3 0 20 -16 39 -35z m-3850 -65 c-11 -36 -16 -68
-11 -73 5 -5 27 1 49 12 23 12 45 21 49 21 4 -1 -17 -14 -47 -30 -30 -16 -47
-29 -37 -30 10 0 16 -4 13 -8 -3 -5 20 -16 50 -26 31 -10 53 -20 51 -23 -3 -3
-29 3 -57 12 -60 20 -76 12 -61 -28 14 -35 6 -35 -13 1 -9 15 -15 20 -16 12 0
-12 -2 -12 -9 -2 -6 9 -16 -7 -32 -53 -28 -81 -36 -74 -10 10 11 33 16 64 11
68 -4 5 -26 -1 -48 -12 -23 -12 -45 -21 -49 -21 -4 1 15 13 42 27 28 14 44 28
37 30 -6 3 -10 8 -8 12 3 4 -20 15 -50 25 -31 10 -54 19 -52 22 3 2 28 -3 58
-12 59 -17 79 -10 61 24 -18 34 -12 39 9 7 17 -25 20 -27 21 -10 0 20 0 20 8
0 6 -15 12 -6 30 48 29 86 37 83 11 -3z m-3484 -342 c457 -203 750 -338 764
-353 15 -16 24 -41 28 -74 4 -45 1 -52 -29 -85 -66 -71 -18 -87 -869 290 -837
372 -800 351 -800 440 0 71 69 131 135 117 17 -3 364 -154 771 -335z m3504
298 c0 -2 -8 -10 -17 -17 -16 -13 -17 -12 -4 4 13 16 21 21 21 13z m-90 -100
c0 -2 -8 -10 -17 -17 -16 -13 -17 -12 -4 4 13 16 21 21 21 13z m-3555 -568
c699 -304 1272 -553 1274 -554 2 -2 -132 -291 -298 -642 -165 -352 -301 -642
-301 -645 0 -14 -321 -682 -329 -685 -10 -3 -359 144 -374 157 -4 4 -6 67 -5
139 l3 131 128 -56 c70 -30 129 -54 131 -52 19 23 715 1524 709 1529 -14 12
-2114 922 -2119 918 -11 -12 -714 -1514 -711 -1522 2 -5 151 -73 332 -152
l330 -143 3 -137 c2 -108 0 -135 -10 -131 -26 10 -993 430 -996 432 -2 2 86
189 194 416 108 228 318 672 467 987 214 453 274 571 286 567 9 -4 588 -254
1286 -557z m6753 398 c3 -12 -1 -17 -10 -14 -7 3 -15 13 -16 22 -3 12 1 17 10
14 7 -3 15 -13 16 -22z m-7236 -1157 c137 -28 284 -135 334 -243 l24 -51 0
-886 0 -886 -172 -6 c-95 -4 -300 -7 -455 -7 l-283 0 1 188 c0 103 3 182 5
175 3 -6 24 -73 47 -149 l42 -137 220 2 c121 0 266 4 323 7 l102 7 0 29 c0 16
7 42 15 57 10 21 17 97 24 292 6 145 13 308 17 362 l6 98 -44 -5 c-23 -3 -65
-7 -93 -8 l-50 -3 -5 450 -5 450 -29 57 c-34 67 -97 137 -161 177 -24 15 -42
31 -38 35 10 10 117 7 175 -5z m-214 -64 c80 -40 152 -112 186 -185 20 -43 21
-62 24 -476 l3 -431 -92 -6 c-51 -4 -204 -7 -341 -7 l-249 0 3 448 3 447 28
61 c55 119 158 183 293 184 62 0 81 -5 142 -35z m226 -1182 c16 -56 118 -685
112 -691 -8 -7 -546 -17 -546 -10 0 4 -185 624 -206 690 -5 16 9 18 163 21
483 8 471 8 477 -10z"/>
<path d="M11730 15284 c-36 -7 -108 -35 -160 -60 -79 -40 -109 -62 -180 -133
-91 -92 -131 -153 -186 -279 -101 -234 -119 -510 -49 -771 85 -316 293 -547
555 -617 86 -23 243 -23 330 -1 36 9 103 36 150 59 114 55 252 192 323 318 56
101 111 262 127 379 20 132 8 353 -25 476 -105 395 -390 647 -729 644 -50 0
-120 -7 -156 -15z m140 -924 c5 0 12 9 15 21 4 11 9 19 11 16 3 -2 0 -17 -6
-32 -10 -26 -6 -24 39 18 70 65 77 59 11 -9 -47 -47 -51 -54 -27 -45 39 15 47
13 17 -4 -23 -13 -20 -14 48 -15 41 0 72 -4 72 -10 0 -6 -33 -10 -77 -10 -74
-1 -77 -1 -53 -16 l25 -15 -25 7 c-21 5 -18 -2 25 -46 28 -29 41 -48 30 -42
-11 6 -35 26 -54 46 -31 32 -35 34 -47 18 -8 -11 -14 -53 -16 -112 l-2 -95 -5
110 -6 110 -18 -30 c-17 -28 -17 -22 -1 23 4 9 -20 -8 -52 -38 -58 -55 -51
-39 16 33 l35 38 -28 -10 c-39 -15 -47 -13 -17 4 23 13 18 14 -65 16 -75 1
-84 3 -50 10 22 4 63 8 91 8 28 1 54 4 58 8 3 4 -17 31 -46 60 -29 29 -48 53
-42 53 5 0 30 -20 54 -45 24 -24 45 -43 47 -41 2 2 -1 15 -6 30 -14 34 -6 33
13 -1 14 -26 15 -22 18 82 l2 110 3 -102 c2 -57 8 -103 13 -103z m-63 -36 c-5
-5 -57 13 -57 20 0 3 14 0 31 -6 16 -6 28 -12 26 -14z m93 -119 c0 -5 -5 -3
-10 5 -5 8 -10 20 -10 25 0 6 5 3 10 -5 5 -8 10 -19 10 -25z"/>
<path d="M4774 12030 c-91 -28 -183 -127 -219 -235 -23 -67 -30 -206 -16 -277
25 -120 104 -233 193 -279 53 -27 159 -37 214 -19 153 49 254 203 256 395 3
181 -73 331 -199 395 -53 27 -172 37 -229 20z"/>
<path d="M14613 12019 c-170 -65 -265 -312 -205 -530 74 -266 334 -365 517
-197 154 140 184 413 65 598 -85 133 -235 184 -377 129z"/>
<path d="M6020 11884 l0 -136 148 4 c134 3 151 6 190 28 50 28 72 63 72 114 0
53 -19 84 -65 106 -36 17 -61 20 -193 20 l-152 0 0 -136z"/>
<path d="M6020 11395 l0 -165 113 0 c141 0 225 12 283 41 65 31 86 69 81 143
-3 54 -7 63 -41 92 -51 44 -101 54 -280 54 l-156 0 0 -165z"/>
<path d="M9670 11870 l0 -153 138 5 c155 5 207 21 255 77 51 61 36 151 -32
193 -33 21 -51 23 -198 27 l-163 3 0 -152z"/>
<path d="M12244 11732 l-60 -187 119 -3 c66 -1 121 -1 123 1 3 3 -112 366
-118 373 -3 2 -31 -80 -64 -184z"/>
<path d="M15880 11870 l0 -150 108 0 c214 0 312 53 312 171 0 33 -6 47 -33 74
-45 45 -89 55 -249 55 l-138 0 0 -150z"/>
<path d="M626 15673 l-14 -27 632 -281 631 -281 13 29 c7 16 12 31 10 32 -6 5
-1245 555 -1251 555 -4 0 -13 -12 -21 -27z"/>
<path d="M20765 15424 c-341 -152 -621 -277 -623 -279 -5 -4 21 -55 28 -55 4
0 288 125 632 278 l624 277 -10 28 c-5 15 -15 27 -20 27 -6 0 -290 -125 -631
-276z"/>
<path d="M2963 3854 l-523 -445 16 -25 c9 -13 19 -24 23 -24 5 0 152 125 894
756 l157 135 -17 24 c-10 13 -20 24 -23 24 -3 0 -240 -200 -527 -445z"/>
<path d="M18715 4160 c-23 -26 -72 20 450 -430 231 -200 430 -372 443 -383
l22 -21 22 22 22 22 -24 24 c-43 43 -905 786 -911 786 -3 0 -14 -9 -24 -20z"/>
</g>
</svg>
